<?xml version="1.0" encoding="iso-8859-1"?>
<!-- Generator: Adobe Illustrator 17.1.0, SVG Export Plug-In . SVG Version: 6.00 Build 0)  -->
<!DOCTYPE svg PUBLIC "-//W3C//DTD SVG 1.1//EN" "http://www.w3.org/Graphics/SVG/1.1/DTD/svg11.dtd">
<svg version="1.1" id="Capa_1" xmlns="http://www.w3.org/2000/svg" xmlns:xlink="http://www.w3.org/1999/xlink" x="0px" y="0px"
	 viewBox="0 0 208.44 208.44" style="enable-background:new 0 0 208.44 208.44;" xml:space="preserve">
<path d="M18.422,83.563C7.756,60.252,5.484,43.027,5.393,42.305c-0.14-1.103,0.295-2.201,1.153-2.909
	c0.858-0.707,2.017-0.926,3.075-0.58c0.957,0.314,17.62,5.842,37.301,16.021c0.01,0.005,0.021,0.011,0.031,0.016
	c0.974,0.504,1.957,1.022,2.945,1.549c0.161,0.086,0.323,0.173,0.484,0.26c0.88,0.472,1.764,0.953,2.652,1.443
	c0.147,0.081,0.293,0.161,0.439,0.243c4.204,2.33,8.475,4.859,12.707,7.583c0.055,0.035,0.11,0.071,0.165,0.106
	c1.3,0.839,2.598,1.689,3.886,2.564c0.762,0.518,1.269,1.337,1.391,2.251l0.975,7.257h0l1.195,8.892l3.174-5.631
	c0.34-0.604,0.861-1.077,1.481-1.359c0.207-0.094,0.424-0.167,0.65-0.216c0.227-0.05,0.458-0.074,0.687-0.074
	c0.002,0,0.004-0.001,0.006-0.001c0.201,0,0.401,0.025,0.598,0.062c0.058,0.011,0.114,0.027,0.171,0.041
	c0.147,0.036,0.291,0.082,0.432,0.138c0.056,0.022,0.112,0.043,0.167,0.068c0.185,0.086,0.365,0.184,0.533,0.306
	c0,0,0.001,0,0.001,0.001c0.005,0.004,0.01,0.007,0.015,0.011c0.641,0.464,1.259,0.918,1.866,1.367
	c0.172,0.127,0.342,0.253,0.51,0.379c0.529,0.394,1.047,0.784,1.551,1.168c0.081,0.062,0.167,0.126,0.247,0.187
	c0.545,0.418,1.072,0.829,1.59,1.237c0.183,0.144,0.363,0.288,0.543,0.431c0.386,0.307,0.764,0.612,1.135,0.915
	c0.148,0.121,0.3,0.243,0.446,0.363c0.451,0.372,0.889,0.741,1.319,1.108c0.199,0.169,0.394,0.338,0.588,0.507
	c0.278,0.241,0.55,0.481,0.819,0.72c0.192,0.17,0.386,0.341,0.573,0.511c0.371,0.335,0.732,0.67,1.088,1.004
	c0.21,0.197,0.416,0.395,0.621,0.592c0.198,0.191,0.394,0.381,0.589,0.572c0.259,0.254,0.516,0.51,0.768,0.765
	c0.265,0.268,0.528,0.537,0.785,0.807c0.212,0.222,0.419,0.445,0.626,0.668c0.151,0.163,0.301,0.326,0.45,0.49
	c0.435,0.478,0.861,0.96,1.277,1.446c0.056,0.065,0.113,0.129,0.168,0.194l0,0c2.073,2.442,3.939,5.01,5.783,7.898
	c0.451,0.706,0.884,1.405,1.313,2.102h0c0,0.001,0.001,0.002,0.001,0.002c0.447,0.726,0.878,1.445,1.301,2.161
	c0.048,0.081,0.098,0.163,0.146,0.244c0.398,0.676,0.782,1.345,1.16,2.011c0.066,0.117,0.134,0.234,0.199,0.35
	c0.365,0.648,0.717,1.289,1.063,1.927c0.069,0.128,0.139,0.256,0.208,0.383c0.339,0.63,0.667,1.254,0.987,1.874
	c0.067,0.129,0.134,0.259,0.2,0.387c0.317,0.619,0.625,1.232,0.925,1.84c0.06,0.122,0.12,0.244,0.179,0.365
	c0.302,0.618,0.595,1.23,0.88,1.837c0.046,0.098,0.091,0.195,0.136,0.293c0.293,0.63,0.578,1.254,0.853,1.872
	c0.026,0.058,0.051,0.116,0.077,0.175c0.29,0.655,0.572,1.303,0.842,1.944l0,0.001l0,0c1.851,4.389,3.245,8.443,4.292,12.108
	c0.014,0.049,0.028,0.098,0.042,0.147c0.186,0.656,0.362,1.3,0.527,1.93c0.01,0.038,0.02,0.077,0.03,0.115
	c0.873,3.362,1.45,6.351,1.825,8.918c0.003,0.021,0.006,0.042,0.009,0.063c0.071,0.49,0.135,0.965,0.193,1.423
	c0.003,0.023,0.006,0.047,0.009,0.07c0.234,1.891,0.357,3.511,0.414,4.832c0.003,0.06,0.005,0.115,0.007,0.173
	c0.01,0.251,0.018,0.491,0.024,0.72c0.002,0.08,0.004,0.156,0.005,0.232c0.004,0.195,0.007,0.379,0.008,0.556
	c0,0.08,0.001,0.161,0.002,0.237c0,0.164-0.001,0.316-0.002,0.462c-0.001,0.066-0.001,0.135-0.002,0.197
	c-0.003,0.179-0.007,0.344-0.011,0.493c0,0.013,0,0.029-0.001,0.042l6.781,7.07l6.504,6.781c0.62,0.646,0.919,1.482,0.902,2.312
	s-0.351,1.653-0.997,2.273c-0.078,0.075-0.167,0.132-0.251,0.198c-0.587,0.461-1.287,0.705-1.993,0.705
	c-0.639,0-1.278-0.188-1.827-0.562c-0.183-0.125-0.355-0.27-0.514-0.436l-13.502-14.078c-1.196,0.137-2.82,0.259-4.848,0.259
	c-4.228,0-10.547-0.551-18.412-2.867c-0.697-0.205-1.41-0.43-2.13-0.663c-2.304-0.747-4.729-1.646-7.262-2.722
	c-1.741-0.739-3.533-1.564-5.372-2.48c-0.615-0.307-1.236-0.624-1.861-0.951c-0.689-0.361-1.383-0.735-2.084-1.122
	c-1.201-0.663-2.418-1.366-3.653-2.111c-0.831-0.501-1.67-1.021-2.516-1.561c-2.295-1.465-4.64-3.065-7.035-4.832
	c-0.226-0.167-0.427-0.36-0.599-0.573c-0.516-0.64-0.777-1.462-0.708-2.302c0.069-0.84,0.461-1.608,1.075-2.155
	c0.205-0.182,0.434-0.34,0.684-0.468l2.125-1.084l2.721-1.387L54.19,133.39c-0.201,0-0.4-0.019-0.594-0.055
	c-0.584-0.109-1.131-0.379-1.578-0.783c-0.741-0.67-1.469-1.345-2.186-2.025c-0.586-0.555-1.16-1.116-1.731-1.678
	c-0.11-0.108-0.223-0.215-0.333-0.324c-1.357-1.344-2.671-2.711-3.949-4.1c0-0.001-0.001-0.001-0.002-0.002l0,0
	c-8.49-9.231-15.302-19.562-21.426-32.372c-0.395-0.826-0.422-1.78-0.076-2.627c0.347-0.847,1.036-1.508,1.896-1.82l2.423-0.879
	l-5.977-1.35C19.67,85.153,18.844,84.482,18.422,83.563z M203.074,5c0,2.761-2.238,5-5,5c-12.102,0-21.946,11.058-21.946,24.65
	l0.029,8.865v129.253c0,19.669-16.002,35.672-35.672,35.672H23.85c-2.762,0-5-2.239-5-5s2.238-5,5-5
	c10.699,0,19.453-9.259,19.967-21.096v-38.758c0.495,0.461,0.986,0.924,1.491,1.381c1.96,1.773,4.383,2.907,6.966,3.284
	c0.87,2.425,2.448,4.574,4.608,6.168c25.075,18.501,46.013,21.263,56.262,21.263c0.277,0,0.552-0.002,0.826-0.006l10.307,10.746
	c2.483,2.59,5.967,4.076,9.558,4.076c3.434,0,6.69-1.309,9.168-3.687c5.268-5.053,5.443-13.453,0.389-18.722l-10.569-11.019
	c-0.227-4.284-1.002-10.665-3.222-18.63h23.14c2.762,0,5-2.239,5-5s-2.238-5-5-5h-26.446c-2.075-5.43-4.793-11.355-8.335-17.667
	h34.781c2.762,0,5-2.239,5-5s-2.238-5-5-5h-40.933c-4.492-6.566-9.408-11.848-16.563-17.667h57.495c2.762,0,5-2.239,5-5
	s-2.238-5-5-5h-71.48c-0.78-3.153-2.7-5.935-5.411-7.778c-10.768-7.314-22.04-13.405-32.034-18.2V34.65
	C43.817,15.544,58.148,0,75.763,0h122.311C200.835,0,203.074,2.239,203.074,5z M157.742,45.44c0-2.761-2.238-5-5-5H66.396
	c-2.762,0-5,2.239-5,5s2.238,5,5,5h86.346C155.503,50.44,157.742,48.202,157.742,45.44z"/>
<g>
</g>
<g>
</g>
<g>
</g>
<g>
</g>
<g>
</g>
<g>
</g>
<g>
</g>
<g>
</g>
<g>
</g>
<g>
</g>
<g>
</g>
<g>
</g>
<g>
</g>
<g>
</g>
<g>
</g>
</svg>
