<svg height="682pt" viewBox="-97 -21 682 682.66669" width="682pt" xmlns="http://www.w3.org/2000/svg"><path d="m145.25 309v-27.75c0-51.75 42.003906-93.75 93.75-93.75-31.128906 0-56.25-25.125-56.25-56.25 0-31.128906 25.121094-56.25 56.25-56.25s56.25 25.121094 56.25 56.25c0 31.125-25.121094 56.25-56.25 56.25 51.75 0 93.75 42 93.75 93.75v27.75c45.375-30.375 75-82.125 75-140.25 0-93.003906-75.75-168.75-168.75-168.75-92.996094 0-168.75 75.746094-168.75 168.75 0 58.125 29.625 109.875 75 140.25zm0 0"/><path d="m239 112.5c-10.503906 0-18.75 8.246094-18.75 18.75 0 10.5 8.246094 18.75 18.75 18.75s18.75-8.25 18.75-18.75c0-10.503906-8.246094-18.75-18.75-18.75zm0 0"/><path d="m464 452.5h-18.75v-56.25c0-10.359375-8.386719-18.75-18.75-18.75h-168.75v-41.605469c12.953125-1.457031 25.582031-3.832031 37.5-8.144531v-46.5c0-31.128906-25.121094-56.25-56.25-56.25s-56.25 25.121094-56.25 56.25v46.5c11.917969 4.3125 24.546875 6.6875 37.5 8.144531v41.605469h-168.75c-10.359375 0-18.75 8.390625-18.75 18.75v56.25h-18.75c-10.359375 0-18.75 8.390625-18.75 18.75v75c0 10.359375 8.390625 18.75 18.75 18.75h18.75v56.25c0 10.359375 8.390625 18.75 18.75 18.75 10.363281 0 18.75-8.390625 18.75-18.75v-56.25h18.75c10.363281 0 18.75-8.390625 18.75-18.75v-75c0-10.359375-8.386719-18.75-18.75-18.75h-18.75v-37.5h150v37.5h-18.75c-10.359375 0-18.75 8.390625-18.75 18.75v75c0 10.359375 8.390625 18.75 18.75 18.75h18.75v56.25c0 10.359375 8.390625 18.75 18.75 18.75 10.363281 0 18.75-8.390625 18.75-18.75v-56.25h18.75c10.363281 0 18.75-8.390625 18.75-18.75v-75c0-10.359375-8.386719-18.75-18.75-18.75h-18.75v-37.5h150v37.5h-18.75c-10.359375 0-18.75 8.390625-18.75 18.75v75c0 10.359375 8.390625 18.75 18.75 18.75h18.75v56.25c0 10.359375 8.390625 18.75 18.75 18.75 10.363281 0 18.75-8.390625 18.75-18.75v-56.25h18.75c10.363281 0 18.75-8.390625 18.75-18.75v-75c0-10.359375-8.386719-18.75-18.75-18.75zm0 0"/></svg>