<svg height="511pt" viewBox="-60 0 511 511.99997" width="511pt" xmlns="http://www.w3.org/2000/svg"><path d="m375.5 362c8.289062 0 15-6.710938 15-15 0-4.484375 0-94.339844 0-90 0-8.289062-6.710938-15-15-15s-15 6.710938-15 15v45h-30v-287c0-8.289062-6.710938-15-15-15h-240c-8.289062 0-15 6.710938-15 15v287h-30v-45c0-8.289062-6.710938-15-15-15s-15 6.710938-15 15c0 3.90625 0 94.535156 0 90 0 8.289062 6.710938 15 15 15h55.703125l96 60-99.65625 62.285156c-7.019531 4.378906-9.15625 13.636719-4.761719 20.667969 4.390625 7.039063 13.675782 9.148437 20.667969 4.761719l112.046875-70.027344 112.046875 70.027344c6.996094 4.386718 16.28125 2.273437 20.667969-4.761719 4.394531-7.03125 2.257812-16.289063-4.761719-20.667969l-99.65625-62.285156 96-60zm-180 42.3125-67.699219-42.3125h135.402344zm105-102.3125h-210v-90h210zm0 0"/></svg>