<?xml version="1.0" encoding="utf-8"?>
<!-- Generator: Adobe Illustrator 16.0.0, SVG Export Plug-In . SVG Version: 6.00 Build 0)  -->
<!DOCTYPE svg PUBLIC "-//W3C//DTD SVG 1.1//EN" "http://www.w3.org/Graphics/SVG/1.1/DTD/svg11.dtd">

<svg version="1.1" id="Layer_1" xmlns="http://www.w3.org/2000/svg" xmlns:xlink="http://www.w3.org/1999/xlink" x="0px" y="0px" 
	 viewBox="284 246 290 70" xml:space="preserve">
<g>
	<path fill-rule="evenodd" clip-rule="evenodd" fill="#2B1C50" d="M343.258,257.461c5.773,1.444,14.342,1.907,24.435,2.032
		c3.017,0.037,0.045,0.848,0.045,0.848s-17.101,1.978-23.467,2.594C343.3,263.028,342.314,257.225,343.258,257.461z"/>
	<path fill-rule="evenodd" clip-rule="evenodd" fill="#2B1C50" d="M280.571,285.945"/>
	<path fill="#2B1C50" d="M319.24,265.674l-3.194-1.417c3.365-7.586,9.779-12.593,16.335-12.756
		c5.461-0.144,10.187,3.057,13.063,8.758l-3.119,1.574c-2.277-4.512-5.791-6.935-9.857-6.84
		C327.254,255.125,322.062,259.317,319.24,265.674z"/>
	<circle fill="#2B1C50" cx="320.354" cy="273.091" r="1.747"/>
	<path fill="#2B1C50" d="M322.102,273.093v-0.001c0,0,0-0.001,0-0.002c0.019-10.306-13.539-18.128-19.371-21.013
		c-0.555-0.274-13.643-6.695-17.247-3.928c-0.831,0.639-0.927,1.688-0.909,2.633c0.086,4.907,4.957,23.639,15.644,31.266
		c1.907,1.359,4.201,2.024,6.497,2.024c2.896,0,5.791-1.062,7.885-3.125c3.576-3.521,3.582-8.701,0.019-13.857l-0.021,0.015
		c-0.32-0.366-0.775-0.609-1.302-0.609c-0.966,0-1.748,0.782-1.748,1.747c0,0.299,0.095,0.567,0.228,0.813l-0.031,0.022
		c2.593,3.753,2.736,7.084,0.404,9.382c-2.536,2.497-6.974,2.833-9.9,0.746c-9.439-6.736-14.12-24.047-14.201-28.298
		c2.733-0.065,11.89,2.678,20.368,8.528c6.584,4.544,10.206,9.395,10.192,13.659c0,0.965,0.782,1.747,1.747,1.747
		c0.962,0,1.739-0.777,1.745-1.738h0.002C322.102,273.098,322.102,273.095,322.102,273.093z"/>
	<path fill="#2B1C50" d="M343.119,260.024c-3.439,4.906-6.635,8.629-8.968,11.35c-2.55,2.971-3.363,3.96-3.519,4.988
		c-2.2,14.533-10.875,16.757-20.059,19.113c-7.825,2.006-15.917,4.08-19.013,14.061c-0.743,2.393-0.372,7.404,2.826,11.271
		c-0.35-1.33-0.555-2.719-0.555-4.158c0-1.906,0.344-3.729,0.943-5.43c0.029-0.258,0.069-0.48,0.122-0.646
		c2.517-8.117,9.017-9.783,16.544-11.713c9.395-2.408,20.039-5.139,22.624-21.831c0.283-0.519,1.529-1.972,2.737-3.38
		c2.245-2.617,5.639-6.573,9.178-11.619L343.119,260.024z"/>
	<path fill="#2B1C50" d="M292.732,318.256c-6.364-9.168-4.306-23.535,3.236-32.377c3.553-4.166,7.689-6.048,11.335-5.169
		l-0.814,3.398c-2.285-0.545-5.228,0.963-7.869,4.045c-5.052,5.896-8.281,16.467-4.676,25.26L292.732,318.256z"/>
</g>
<g>
	<path fill="#2B1C50" d="M391.316,279.757c2.363,1.008,4.144,2.347,5.343,4.017c1.198,1.67,1.797,3.645,1.797,5.926
		c0,3.339-1.062,6.029-3.186,8.07s-4.938,3.063-8.442,3.063c-2.859,0-5.256-0.732-7.19-2.195c-1.934-1.463-3.239-3.541-3.917-6.234
		l3.917-1.935c0.529,2.198,1.401,3.864,2.616,4.995c1.215,1.133,2.739,1.699,4.574,1.699c2.165,0,3.918-0.624,5.257-1.872
		c1.339-1.247,2.008-2.872,2.008-4.872c0-1.619-0.467-3.028-1.4-4.227c-0.935-1.199-2.344-2.211-4.228-3.038l-4.413-1.884
		c-2.414-1.008-4.211-2.306-5.393-3.893c-1.183-1.587-1.773-3.488-1.773-5.703c0-2.579,0.959-4.711,2.876-6.397
		c1.918-1.686,4.364-2.529,7.339-2.529c2.183,0,4.07,0.463,5.666,1.388c1.595,0.926,2.839,2.29,3.731,4.091l-3.57,2.281
		c-0.811-1.405-1.72-2.45-2.728-3.136c-1.009-0.686-2.148-1.029-3.422-1.029c-1.62,0-2.946,0.496-3.979,1.487
		c-1.033,0.992-1.55,2.256-1.55,3.793c0,1.29,0.396,2.405,1.189,3.347c0.794,0.942,2.025,1.777,3.694,2.504L391.316,279.757z"/>
	<path fill="#2B1C50" d="M405.884,299.914v-37.736l26.555,29.008v-27.57h4.115v37.711L410,272.641v27.273H405.884z"/>
	<path fill="#2B1C50" d="M484.049,281.839c0,2.595-0.48,5.042-1.439,7.338c-0.959,2.299-2.357,4.34-4.192,6.125
		c-1.837,1.785-3.949,3.161-6.339,4.128c-2.391,0.967-4.867,1.45-7.431,1.45s-5.032-0.483-7.405-1.45
		c-2.374-0.967-4.479-2.343-6.314-4.128c-1.853-1.802-3.263-3.852-4.23-6.148c-0.968-2.298-1.451-4.736-1.451-7.315
		c0-2.595,0.483-5.045,1.451-7.351s2.378-4.359,4.23-6.161c1.819-1.769,3.92-3.132,6.302-4.091s4.854-1.438,7.418-1.438
		c2.58,0,5.064,0.479,7.455,1.438c2.39,0.958,4.494,2.322,6.314,4.091c1.835,1.785,3.233,3.831,4.192,6.136
		S484.049,279.228,484.049,281.839z M464.647,296.814c1.985,0,3.875-0.375,5.67-1.128c1.795-0.751,3.412-1.847,4.852-3.284
		c1.422-1.422,2.506-3.033,3.25-4.836c0.745-1.801,1.117-3.71,1.117-5.727c0-2.033-0.377-3.967-1.13-5.801
		c-0.752-1.835-1.832-3.455-3.237-4.86c-1.423-1.421-3.032-2.504-4.827-3.248c-1.795-0.744-3.693-1.116-5.694-1.116
		c-2.019,0-3.93,0.372-5.732,1.116c-1.803,0.744-3.399,1.827-4.789,3.248c-1.423,1.438-2.506,3.066-3.251,4.884
		c-0.744,1.819-1.116,3.744-1.116,5.777c0,2.017,0.368,3.917,1.104,5.703c0.735,1.785,1.823,3.405,3.263,4.86
		c1.456,1.454,3.073,2.553,4.852,3.297S462.646,296.814,464.647,296.814z"/>
	<path fill="#2B1C50" d="M502.236,301.327l-15.348-37.711h4.687l10.661,27.769l10.611-27.769h4.661L502.236,301.327z"/>
	<path fill="#2B1C50" d="M523.002,299.914v-36.298h19.141v3.942h-14.826v10.413h14.826v4.017h-14.826v13.909h14.826v4.017H523.002z"
		/>
	<path fill="#2B1C50" d="M551.133,299.914v-36.298h4.314v32.183h13.711v4.115H551.133z"/>
</g>
</svg>
